PathFileType	3	(X/Y/Z)	F:\ViconData\AntennenMessung\Messung1\Session1\ID23.trc
DataRate	CameraRate	NumFrames	NumMarkers	Units	OrigDataRate	OrigDataStartFrame	OrigNumFrames
120.0	120.0	4	70	mm	120.0	751	1000	
Frame#	Time	Ashort			Along			Atop			A4			Bshort			Blong			Btop			B4			Cshort			Clong			Ctop			C4			Dshort			Dlong			Dtop			D4			Eshort			Elong			Etop			E4			Fshort			Flong			Ftop			F4			Gshort			Glong			Gtop			G4			Hshort			Hlong			Htop			H4			I1			I2			I3			I4			I5			WandAshort			WandAlong			WandAtop			WandA4			WandA15			WandBshort			WandB4			WandB5			WandBtop			WandBlong			WandCshort			WandClong			WandCtop			WandC4			WandC5			Acenter			Aantenna			Bcenter			Bantenna			Ccenter			Cantenna			Dcenter			Dantenna			Ecenter			Eantenna			Fcenter			Fantenna			Gcenter			Gantenna			Hcenter			Hantenna			Icenter			Iantenna			
		X1	Y1	Z1	X2	Y2	Z2	X3	Y3	Z3	X4	Y4	Z4	X5	Y5	Z5	X6	Y6	Z6	X7	Y7	Z7	X8	Y8	Z8	X9	Y9	Z9	X10	Y10	Z10	X11	Y11	Z11	X12	Y12	Z12	X13	Y13	Z13	X14	Y14	Z14	X15	Y15	Z15	X16	Y16	Z16	X17	Y17	Z17	X18	Y18	Z18	X19	Y19	Z19	X20	Y20	Z20	X21	Y21	Z21	X22	Y22	Z22	X23	Y23	Z23	X24	Y24	Z24	X25	Y25	Z25	X26	Y26	Z26	X27	Y27	Z27	X28	Y28	Z28	X29	Y29	Z29	X30	Y30	Z30	X31	Y31	Z31	X32	Y32	Z32	X33	Y33	Z33	X34	Y34	Z34	X35	Y35	Z35	X36	Y36	Z36	X37	Y37	Z37	X38	Y38	Z38	X39	Y39	Z39	X40	Y40	Z40	X41	Y41	Z41	X42	Y42	Z42	X43	Y43	Z43	X44	Y44	Z44	X45	Y45	Z45	X46	Y46	Z46	X47	Y47	Z47	X48	Y48	Z48	X49	Y49	Z49	X50	Y50	Z50	X51	Y51	Z51	X52	Y52	Z52	X53	Y53	Z53	X54	Y54	Z54	X55	Y55	Z55	X56	Y56	Z56	X57	Y57	Z57	X58	Y58	Z58	X59	Y59	Z59	X60	Y60	Z60	X61	Y61	Z61	X62	Y62	Z62	X63	Y63	Z63	X64	Y64	Z64	X65	Y65	Z65	X66	Y66	Z66	X67	Y67	Z67	X68	Y68	Z68	X69	Y69	Z69	X70	Y70	Z70	
751	6.25	-1038.2004	214.63187	-1644.0057	-1109.4622	204.34833	-1599.3579	-1063.7235	173.16086	-1625.7522	-1054.0991	262.33865	-1634.9014	-1352.5308	235.34282	1003.3347	-1281.3967	227.40179	1052.1184	-1322.5093	194.0638	1020.8586	-1284.3152	288.07379	1052.4893	814.01495	187.62898	1209.4047	892.24115	178.71448	1178.866	844.51172	145.43314	1198.3215	861.06421	292.54037	1168.3535	1115.8398	210.0134	-1401.7904	1056.3099	194.14311	-1460.2678	1094.9103	162.05479	-1423.7816	1069.666	239.55716	-1426.2643	-1204.7291	1686.1295	-1562.8234	-1129.1127	1688.3755	-1605.941	-1173.1615	1724.3696	-1581.8655	-1134.0116	1581.0688	-1603.8389	-1239.5244	1699.0396	1119.5587	-1309.3438	1698.8113	1072.0043	-1270.417	1736.269	1096.9485	-1245.501	1592.6532	1110.7052	988.89093	1664.2172	1162.1372	957.34961	1700.4763	1183.8561	921.86902	1662.2666	1214.8926	939.78326	1659.4684	1159.7148	999.08649	1668.4495	-1579.4152	1058.9667	1670.2086	-1518.6718	1025.005	1708.0978	-1551.1233	1059.3241	1672.1909	-1585.4059	-231.39319	1638.9337	-185.78355	-228.90614	1638.3541	-270.24103	-229.71677	1675.4615	-223.68413	-196.23637	1638.5363	-221.48857	-278.755	1639.9045	-223.87897																																														-1068.5847	210.24721	-1624.9689	-1073.6521	248.90796	-1624.1526	-1321.0713	231.83086	1024.9095	-1319.5959	270.58066	1029.0658	848.02246	183.75356	1196.1284	851.57483	222.52798	1193.9093	1088.6704	202.77019	-1428.4794	1082.8005	241.07182	-1432.8987	-1171.8781	1687.1052	-1581.5555	-1170.5356	1648.1298	-1581.2314	-1271.0635	1698.9364	1098.077	-1271.7385	1659.9601	1099.2555	952.72565	1705.7917	1187.04	972.72052	1733.9957	1168.9918	1026.567	1669.2567	-1551.5383	1028.1343	1630.2905	-1551.9548	-230.28406	1638.6752	-223.44844	-230.88539	1599.6807	-223.19861
752	6.2583333	-1038.202	214.6086	-1644.0022	-1109.4691	204.50406	-1599.4152	-1063.7386	173.13867	-1625.7534	-1054.1337	262.34213	-1634.8287	-1352.5353	235.3904	1003.2538	-1281.2965	227.52202	1052.1161	-1322.5236	194.07356	1020.8312	-1284.3555	288.05869	1052.4928	814.08917	187.77313	1209.4241	892.33313	178.80008	1178.8062	844.53339	145.39308	1198.3373	861.146	292.47818	1168.3397	1115.806	209.74373	-1401.6499	1056.3314	194.10844	-1460.2373	1094.9587	162.18118	-1423.8094	1069.661	239.56004	-1426.2909	-1204.7198	1686.1145	-1562.8328	-1129.1127	1688.3706	-1605.9315	-1173.1493	1724.3431	-1581.8558	-1133.9916	1581.0662	-1603.8583	-1239.5867	1699.0923	1119.5703	-1309.3324	1698.7922	1072.0004	-1270.4343	1736.2947	1096.9572	-1245.5558	1592.7777	1110.7529	988.8598	1664.1974	1162.1202	957.37933	1700.5081	1183.7876	921.8208	1662.2772	1214.9003	939.78284	1659.4354	1159.7401	999.08527	1668.4471	-1579.3949	1058.963	1670.2028	-1518.6731	1025.0056	1708.1063	-1551.1241	1059.3273	1672.2017	-1585.4077	-231.39272	1638.902	-185.80283	-228.90857	1638.351	-270.24466	-229.71886	1675.4847	-223.68173	-196.25989	1638.517	-221.51726	-278.7536	1639.9161	-223.87157																																														-1068.5477	210.30605	-1625.017	-1073.5511	248.97617	-1624.2507	-1321.0837	231.91656	1024.826	-1319.6093	270.67334	1028.9174	848.07996	183.87505	1196.1229	851.65326	222.64687	1193.8918	1088.7504	202.63107	-1428.3018	1082.869	240.94946	-1432.5576	-1171.8687	1687.0947	-1581.559	-1170.5287	1648.119	-1581.2484	-1271.0571	1698.9568	1098.1058	-1271.7073	1659.9807	1099.3049	952.78748	1705.8042	1186.948	972.81897	1733.9608	1168.8665	1026.5596	1669.2526	-1551.5332	1028.1183	1630.2859	-1551.9435	-230.28494	1638.6561	-223.45805	-230.88432	1599.6615	-223.22121
753	6.2666667	-1038.1897	214.57552	-1643.979	-1109.5773	204.05522	-1599.4653	-1063.7362	173.12244	-1625.8014	-1054.134	262.34985	-1634.8497	-1352.578	235.2468	1003.2299	-1281.2721	227.56195	1052.0961	-1322.5183	194.0479	1020.8768	-1284.389	288.0213	1052.604	814.1076	187.74704	1209.4523	892.25281	178.73477	1178.7712	844.54376	145.37788	1198.3789	861.08221	292.43774	1168.4084	1115.8003	209.73456	-1401.666	1056.3442	194.10803	-1460.2462	1094.9984	162.20195	-1423.8854	1069.6836	239.55356	-1426.2832	-1204.7415	1686.1379	-1562.8107	-1129.1326	1688.3685	-1605.9091	-1173.16	1724.3425	-1581.8453	-1133.9875	1581.0571	-1603.858	-1239.5646	1699.0531	1119.5555	-1309.314	1698.7675	1071.9948	-1270.425	1736.2997	1096.9642	-1245.4983	1592.6617	1110.712	988.84991	1664.1912	1162.1234	957.3349	1700.5118	1183.8123	921.98456	1662.2809	1214.9412	939.81079	1659.4797	1159.6937	999.10071	1668.4355	-1579.3811	1058.962	1670.2095	-1518.6536	1025.0087	1708.0797	-1551.1244	1059.333	1672.2015	-1585.4003	-231.39616	1638.9041	-185.79361	-228.88596	1638.3488	-270.25693	-229.72525	1675.4681	-223.68103	-196.19595	1638.5465	-221.46509	-278.66205	1639.7968	-223.88004																																														-1068.6675	210.084	-1624.9745	-1073.824	248.73196	-1624.1097	-1321.1228	231.85677	1024.7863	-1319.6918	270.62381	1028.7948	848.08771	183.8282	1196.1111	851.66101	222.59679	1193.8246	1088.7457	202.62395	-1428.3219	1082.8187	240.94084	-1432.5276	-1171.8866	1687.1071	-1581.5385	-1170.5537	1648.1312	-1581.2173	-1271.0411	1698.9241	1098.0922	-1271.6836	1659.9471	1099.2686	952.79755	1705.741	1186.9348	972.76355	1733.9017	1168.7876	1026.5626	1669.2493	-1551.5216	1028.1218	1630.2825	-1551.9205	-230.27687	1638.6564	-223.45534	-230.86121	1599.6615	-223.21628
754	6.275	-1038.1924	214.59967	-1643.9943	-1109.4924	204.34674	-1599.3561	-1063.932	173.03946	-1625.4739	-1054.1289	262.39108	-1634.8729	-1352.5217	235.32468	1003.4431	-1281.3502	227.44522	1052.1112	-1322.5081	194.03526	1020.8531	-1284.4536	287.97235	1052.604	814.09589	187.76909	1209.3818	892.24481	178.6687	1178.8096	844.53558	145.3967	1198.3922	861.10455	292.52005	1168.3567	1115.8071	209.73848	-1401.6609	1056.3644	194.12404	-1460.2117	1095.0197	162.2531	-1423.8336	1069.6614	239.5359	-1426.2717	-1204.7289	1686.1272	-1562.8186	-1129.1075	1688.3976	-1605.9602	-1173.1498	1724.3645	-1581.871	-1133.986	1581.0754	-1603.8842	-1239.5806	1699.1096	1119.575	-1309.4664	1698.9822	1072.0753	-1270.4205	1736.2905	1096.9609	-1245.5189	1592.7203	1110.7356	988.82776	1664.1624	1162.114	957.33789	1700.4849	1183.8468	921.85547	1662.2981	1214.9062	939.78699	1659.4563	1159.7162	999.09357	1668.4393	-1579.3721	1058.8279	1670.0232	-1518.6721	1025.0184	1708.1033	-1551.119	1059.3369	1672.2076	-1585.4077	-231.39433	1638.8909	-185.79393	-228.90793	1638.3496	-270.2435	-229.70836	1675.4653	-223.67412	-196.25562	1638.5022	-221.50072	-278.62262	1639.7734	-223.86414																																														-1068.8521	210.1908	-1624.7992	-1073.9716	248.84697	-1624.0974	-1321.1064	231.84666	1024.9253	-1319.6702	270.59616	1029.0984	848.10321	183.80894	1196.0779	851.70361	222.57211	1193.7426	1088.7865	202.64069	-1428.2761	1082.8728	240.9586	-1432.4908	-1171.8599	1687.1139	-1581.5702	-1170.5101	1648.1385	-1581.2556	-1271.1425	1699.0521	1098.1229	-1271.8982	1660.0784	1099.3394	952.7522	1705.7742	1187.0116	972.77161	1733.9443	1168.9376	1026.4808	1669.1655	-1551.542	1027.9443	1630.1953	-1551.9655	-230.28548	1638.6494	-223.45518	-230.89677	1599.6549	-223.22331
